<?xml version="1.0" encoding="UTF-8"?>
<svg id="Layer_2" data-name="Layer 2" xmlns="http://www.w3.org/2000/svg" xmlns:xlink="http://www.w3.org/1999/xlink" viewBox="0 0 133.64 567.87">
  <defs>
    <style>
      .cls-1 {
        fill: #ffc721;
        font-family: Arial-BoldMT, Arial;
        font-weight: 700;
      }

      .cls-1, .cls-2 {
        font-size: 14px;
      }

      .cls-3 {
        fill: url(#linear-gradient-2);
      }

      .cls-4 {
        stroke: #90cc3a;
        stroke-width: 1.5px;
      }

      .cls-4, .cls-5, .cls-6 {
        fill: none;
        stroke-miterlimit: 2;
      }

      .cls-7 {
        fill: url(#linear-gradient-10);
      }

      .cls-8 {
        fill: url(#linear-gradient-4);
      }

      .cls-9 {
        letter-spacing: -.06em;
      }

      .cls-10 {
        fill: #8cb4da;
      }

      .cls-11 {
        letter-spacing: -.05em;
      }

      .cls-12 {
        letter-spacing: -.09em;
      }

      .cls-13 {
        fill: url(#linear-gradient-3);
      }

      .cls-14 {
        fill: url(#linear-gradient-5);
      }

      .cls-15 {
        fill: url(#linear-gradient-8);
      }

      .cls-16 {
        fill: #90cc3a;
      }

      .cls-17 {
        letter-spacing: -.02em;
      }

      .cls-18, .cls-19, .cls-2, .cls-20 {
        font-family: ArialMT, Arial;
      }

      .cls-18, .cls-19, .cls-20 {
        fill: #b9c9d2;
      }

      .cls-18, .cls-20 {
        font-size: 12px;
      }

      .cls-5 {
        stroke: #8cb4da;
      }

      .cls-5, .cls-6 {
        stroke-width: 1.96px;
      }

      .cls-19 {
        font-size: 13px;
      }

      .cls-21 {
        fill: url(#linear-gradient-7);
      }

      .cls-22 {
        fill: url(#linear-gradient-9);
      }

      .cls-23 {
        fill: url(#linear-gradient-11);
      }

      .cls-2 {
        fill: #708591;
      }

      .cls-24 {
        fill: url(#linear-gradient-6);
      }

      .cls-20 {
        letter-spacing: -.05em;
      }

      .cls-25 {
        fill: #f83300;
      }

      .cls-26 {
        fill: url(#linear-gradient);
      }

      .cls-6 {
        stroke: #f83300;
      }
    </style>
    <linearGradient id="linear-gradient" x1="44.46" y1="338.09" x2="44.46" y2="322.92" gradientUnits="userSpaceOnUse">
      <stop offset=".13" stop-color="#f7941d"/>
      <stop offset=".17" stop-color="#df851d"/>
      <stop offset=".24" stop-color="#ba6f1e"/>
      <stop offset=".3" stop-color="#9d5e1f"/>
      <stop offset=".37" stop-color="#88511f"/>
      <stop offset=".44" stop-color="#7c4a1f"/>
      <stop offset=".5" stop-color="#784820"/>
      <stop offset=".56" stop-color="#7c4a1f"/>
      <stop offset=".62" stop-color="#88511f"/>
      <stop offset=".69" stop-color="#9d5e1f"/>
      <stop offset=".75" stop-color="#ba6f1e"/>
      <stop offset=".82" stop-color="#df851d"/>
      <stop offset=".85" stop-color="#f7941d"/>
    </linearGradient>
    <linearGradient id="linear-gradient-2" x1="1439.26" y1="-1985.06" x2="1438.91" y2="-1968.27" gradientTransform="translate(1483.53 -1733.86) rotate(-180)" gradientUnits="userSpaceOnUse">
      <stop offset=".18" stop-color="#ea2227"/>
      <stop offset=".18" stop-color="#e82126"/>
      <stop offset=".24" stop-color="#c31e22"/>
      <stop offset=".31" stop-color="#a61b1f"/>
      <stop offset=".37" stop-color="#91191c"/>
      <stop offset=".44" stop-color="#85181b"/>
      <stop offset=".5" stop-color="#81181b"/>
      <stop offset=".57" stop-color="#85181b"/>
      <stop offset=".65" stop-color="#91181c"/>
      <stop offset=".73" stop-color="#a6191e"/>
      <stop offset=".81" stop-color="#c31a20"/>
      <stop offset=".89" stop-color="#e81b23"/>
      <stop offset=".9" stop-color="#ed1c24"/>
    </linearGradient>
    <linearGradient id="linear-gradient-3" x1="44.46" y1="220.24" x2="44.46" y2="204.78" gradientUnits="userSpaceOnUse">
      <stop offset=".11" stop-color="#654e9f"/>
      <stop offset=".19" stop-color="#4f3c7f"/>
      <stop offset=".27" stop-color="#3b2d62"/>
      <stop offset=".36" stop-color="#2d214d"/>
      <stop offset=".44" stop-color="#241b41"/>
      <stop offset=".52" stop-color="#22193d"/>
      <stop offset=".6" stop-color="#241b41"/>
      <stop offset=".69" stop-color="#2d214d"/>
      <stop offset=".77" stop-color="#3b2d62"/>
      <stop offset=".86" stop-color="#4f3c7f"/>
      <stop offset=".93" stop-color="#654e9f"/>
    </linearGradient>
    <linearGradient id="linear-gradient-4" x1="44.46" y1="190.63" x2="44.46" y2="176.05" gradientUnits="userSpaceOnUse">
      <stop offset=".08" stop-color="#5697d1"/>
      <stop offset=".12" stop-color="#4b81b8"/>
      <stop offset=".2" stop-color="#3c6193"/>
      <stop offset=".27" stop-color="#2f4776"/>
      <stop offset=".35" stop-color="#273561"/>
      <stop offset=".43" stop-color="#212a55"/>
      <stop offset=".5" stop-color="#202751"/>
      <stop offset=".57" stop-color="#212a55"/>
      <stop offset=".64" stop-color="#273561"/>
      <stop offset=".71" stop-color="#2f4776"/>
      <stop offset=".79" stop-color="#3c6193"/>
      <stop offset=".86" stop-color="#4b81b8"/>
      <stop offset=".9" stop-color="#5697d1"/>
    </linearGradient>
    <linearGradient id="linear-gradient-5" x1="44.46" y1="278.35" x2="44.46" y2="260.1" gradientTransform="translate(0 0)" gradientUnits="userSpaceOnUse">
      <stop offset="0" stop-color="#fff200"/>
      <stop offset=".09" stop-color="#b6ad09"/>
      <stop offset=".19" stop-color="#757011"/>
      <stop offset=".26" stop-color="#454317"/>
      <stop offset=".32" stop-color="#28271b"/>
      <stop offset=".36" stop-color="#1d1d1d"/>
      <stop offset=".4" stop-color="#22221c"/>
      <stop offset=".44" stop-color="#31301a"/>
      <stop offset=".5" stop-color="#4b4817"/>
      <stop offset=".55" stop-color="#6f6a12"/>
      <stop offset=".61" stop-color="#9d950c"/>
      <stop offset=".67" stop-color="#d4ca05"/>
      <stop offset=".71" stop-color="#fff200"/>
    </linearGradient>
    <linearGradient id="linear-gradient-6" x1="44.46" y1="397.79" x2="44.46" y2="383.16" gradientUnits="userSpaceOnUse">
      <stop offset=".19" stop-color="#c49a6c"/>
      <stop offset=".23" stop-color="#b0865a"/>
      <stop offset=".3" stop-color="#936b40"/>
      <stop offset=".37" stop-color="#7e572e"/>
      <stop offset=".44" stop-color="#724b23"/>
      <stop offset=".5" stop-color="#6e4720"/>
      <stop offset=".57" stop-color="#724b23"/>
      <stop offset=".64" stop-color="#7e572e"/>
      <stop offset=".71" stop-color="#936b40"/>
      <stop offset=".79" stop-color="#b0865a"/>
      <stop offset=".83" stop-color="#c49a6c"/>
    </linearGradient>
    <linearGradient id="linear-gradient-7" x1="44.46" y1="297.87" x2="44.46" y2="283.95" gradientTransform="translate(0 128)" gradientUnits="userSpaceOnUse">
      <stop offset="0" stop-color="gray"/>
      <stop offset=".5" stop-color="#28211f"/>
      <stop offset=".9" stop-color="gray"/>
    </linearGradient>
    <linearGradient id="linear-gradient-8" x1="44.02" y1="368.82" x2="44.85" y2="349.73" gradientUnits="userSpaceOnUse">
      <stop offset="0" stop-color="#39b54a"/>
      <stop offset=".01" stop-color="#35ad47"/>
      <stop offset=".09" stop-color="#23883c"/>
      <stop offset=".16" stop-color="#156b34"/>
      <stop offset=".23" stop-color="#0b562d"/>
      <stop offset=".3" stop-color="#054a2a"/>
      <stop offset=".37" stop-color="#034629"/>
      <stop offset=".45" stop-color="#054a2a"/>
      <stop offset=".54" stop-color="#0b562d"/>
      <stop offset=".62" stop-color="#156b34"/>
      <stop offset=".71" stop-color="#23883c"/>
      <stop offset=".8" stop-color="#35ad47"/>
      <stop offset=".82" stop-color="#39b54a"/>
    </linearGradient>
    <linearGradient id="linear-gradient-9" x1="44.5" y1="295.82" x2="44.4" y2="309.23" gradientUnits="userSpaceOnUse">
      <stop offset="0" stop-color="#5eb6cd"/>
      <stop offset=".05" stop-color="#519aad"/>
      <stop offset=".16" stop-color="#37616c"/>
      <stop offset=".25" stop-color="#24373c"/>
      <stop offset=".32" stop-color="#181d1f"/>
      <stop offset=".36" stop-color="#141414"/>
      <stop offset=".41" stop-color="#161819"/>
      <stop offset=".48" stop-color="#1c2628"/>
      <stop offset=".55" stop-color="#263c42"/>
      <stop offset=".63" stop-color="#345c66"/>
      <stop offset=".71" stop-color="#478494"/>
      <stop offset=".79" stop-color="#5db4cb"/>
      <stop offset=".8" stop-color="#5eb6cd"/>
    </linearGradient>
    <linearGradient id="linear-gradient-10" x1="1439.68" y1="-1897.78" x2="1439.21" y2="-1875.25" gradientTransform="translate(1483.53 -1733.86) rotate(-180)" gradientUnits="userSpaceOnUse">
      <stop offset=".16" stop-color="#fcee21"/>
      <stop offset=".19" stop-color="#d2c724"/>
      <stop offset=".22" stop-color="#a8a028"/>
      <stop offset=".26" stop-color="#847e2b"/>
      <stop offset=".3" stop-color="#66632e"/>
      <stop offset=".34" stop-color="#4f4d30"/>
      <stop offset=".39" stop-color="#3f3e31"/>
      <stop offset=".44" stop-color="#363532"/>
      <stop offset=".51" stop-color="#333"/>
      <stop offset=".56" stop-color="#373632"/>
      <stop offset=".61" stop-color="#434231"/>
      <stop offset=".66" stop-color="#58552f"/>
      <stop offset=".72" stop-color="#75702d"/>
      <stop offset=".77" stop-color="#9a9329"/>
      <stop offset=".82" stop-color="#c8bd25"/>
      <stop offset=".88" stop-color="#fcee21"/>
    </linearGradient>
    <linearGradient id="linear-gradient-11" x1="1440.99" y1="-1833.46" x2="1440.53" y2="-1810.92" gradientTransform="translate(1483.53 -1733.86) rotate(-180)" gradientUnits="userSpaceOnUse">
      <stop offset=".16" stop-color="#00ee21"/>
      <stop offset=".18" stop-color="#07d223"/>
      <stop offset=".21" stop-color="#12a827"/>
      <stop offset=".25" stop-color="#1c842b"/>
      <stop offset=".29" stop-color="#24662e"/>
      <stop offset=".34" stop-color="#2b4f30"/>
      <stop offset=".38" stop-color="#2f3f31"/>
      <stop offset=".44" stop-color="#323632"/>
      <stop offset=".51" stop-color="#333"/>
      <stop offset=".56" stop-color="#313732"/>
      <stop offset=".62" stop-color="#2e4331"/>
      <stop offset=".68" stop-color="#28582f"/>
      <stop offset=".74" stop-color="#20752c"/>
      <stop offset=".79" stop-color="#169a28"/>
      <stop offset=".85" stop-color="#0ac824"/>
      <stop offset=".9" stop-color="#00ee21"/>
    </linearGradient>
  </defs>
  <g id="Layer_1-2" data-name="Layer 1">
    <g>
      <text class="cls-1" transform="translate(27.52 14.78)"><tspan x="0" y="0">Figure Legend</tspan></text>
      <text class="cls-2" transform="translate(38.95 122.35)"><tspan x="0" y="0">Protein</tspan><tspan class="cls-17" x="44.36" y="0"> </tspan><tspan class="cls-9" x="48" y="0">T</tspan><tspan x="55.77" y="0">ype</tspan></text>
      <text class="cls-2" transform="translate(25.3 468.77)"><tspan x="0" y="0">Interaction</tspan><tspan class="cls-17" x="65.37" y="0"> </tspan><tspan class="cls-9" x="69.01" y="0">T</tspan><tspan x="76.79" y="0">ype</tspan></text>
      <text class="cls-19" transform="translate(50.83 494.45)"><tspan x="0" y="0">Inhibitory</tspan></text>
      <text class="cls-19" transform="translate(50.82 524.18)"><tspan x="0" y="0">Stimulatory</tspan></text>
      <text class="cls-19" transform="translate(50.05 554.9)"><tspan x="0" y="0">Unknown</tspan></text>
      <g>
        <line class="cls-4" x1="32.03" y1="530.81" x2="115.05" y2="530.81"/>
        <path class="cls-16" d="M118.6,529.28c-2.48-.75-4.09-1.44-6.08-2.24v7.57c.71-.34,3.6-1.49,6.08-2.24,2.65-.8,5.06-1.35,6.62-1.55-1.56-.2-3.97-.74-6.62-1.55Z"/>
      </g>
      <g>
        <line class="cls-6" x1="32.68" y1="501.44" x2="115.71" y2="501.44"/>
        <path class="cls-25" d="M120.34,499.43c-3.24-.98-5.35-1.88-7.96-2.93v9.9c.93-.44,4.71-1.95,7.96-2.93,3.47-1.05,6.62-1.77,8.66-2.02-2.04-.26-5.19-.97-8.66-2.02Z"/>
      </g>
      <g>
        <line class="cls-5" x1="32.03" y1="562.9" x2="115.05" y2="562.9"/>
        <path class="cls-10" d="M119.69,560.89c-3.24-.98-5.35-1.88-7.96-2.93v9.9c.93-.44,4.71-1.95,7.96-2.93,3.47-1.05,6.62-1.77,8.66-2.02-2.04-.26-5.19-.97-8.66-2.02Z"/>
      </g>
      <path class="cls-26" d="M35.94,338.09l-7.27-6.47c-.67-.6-.67-1.64,0-2.24l7.27-6.47h17.05l7.27,6.47c.67.6.67,1.64,0,2.24l-7.27,6.47h-17.05Z"/>
      <path class="cls-3" d="M28.47,242.1c0-4.26,7.16-7.71,16-7.71s15.99,3.45,15.99,7.71-7.16,7.71-15.99,7.71-16-3.45-16-7.71Z"/>
      <path class="cls-13" d="M60.97,215.09c0,2.85-2.11,5.15-4.72,5.15h-23.58c-2.6,0-4.72-2.31-4.72-5.15v-5.15c0-2.84,2.11-5.15,4.72-5.15h23.58c2.6,0,4.72,2.31,4.72,5.15v5.15Z"/>
      <path class="cls-8" d="M60.19,185.77c0,2.68-2.01,4.86-4.49,4.86h-22.47c-2.48,0-4.49-2.18-4.49-4.86v-4.86c0-2.68,2.01-4.86,4.49-4.86h22.47c2.48,0,4.49,2.18,4.49,4.86v4.86Z"/>
      <text class="cls-18" transform="translate(68.94 217.58)"><tspan class="cls-9" x="0" y="0">T</tspan><tspan x="6.67" y="0">yr Kinase</tspan></text>
      <text class="cls-18" transform="translate(68.94 181.84)"><tspan x="0" y="0">Ser/Thr </tspan><tspan x="0" y="11">Kinase</tspan></text>
      <text class="cls-20" transform="translate(68.94 245.53)"><tspan x="0" y="0">Phosphatase</tspan></text>
      <text class="cls-18" transform="translate(68.94 308.41)"><tspan x="0" y="0">Regulatory</tspan></text>
      <text class="cls-18" transform="translate(68.94 364.29)"><tspan x="0" y="0">Metabolic</tspan></text>
      <text class="cls-18" transform="translate(68.94 392.24)"><tspan x="0" y="0">Structural</tspan></text>
      <text class="cls-18" transform="translate(68.94 420.18)"><tspan x="0" y="0">Unclassified</tspan></text>
      <path class="cls-14" d="M34.58,279.16l-5.12-3.94c2.62-2.02,2.62-5.31,0-7.33l5.12-3.94h19.76s5.12,3.94,5.12,3.94c-2.62,2.02-2.62,5.31,0,7.33l-5.12,3.94h-19.76Z"/>
      <text class="cls-18" transform="translate(68.96 273.47)"><tspan x="0" y="0">Adapter/</tspan><tspan x="0" y="12">Sca</tspan><tspan class="cls-17" x="20.68" y="12">f</tspan><tspan x="23.79" y="12">fold</tspan></text>
      <text class="cls-18" transform="translate(68.94 336.35)"><tspan class="cls-12" x="0" y="0">T</tspan><tspan class="cls-11" x="6.29" y="0">ranscription</tspan></text>
      <rect class="cls-24" x="29.18" y="383.16" width="30.57" height="14.63"/>
      <path class="cls-21" d="M29.07,411.95h30.79c0,7.69-6.24,13.93-13.93,13.93h-2.94c-7.69,0-13.93-6.24-13.93-13.93h0Z" transform="translate(88.93 837.82) rotate(180)"/>
      <polygon class="cls-15" points="44.46 352.24 26.91 358.65 33.62 369.01 55.31 369.01 62.01 358.65 44.46 352.24"/>
      <polygon class="cls-22" points="50.84 293.31 38.08 293.31 29.06 297.84 29.06 304.24 38.08 308.76 50.84 308.76 59.86 304.24 59.86 297.84 50.84 293.31"/>
      <path class="cls-7" d="M28.12,150.79c0-4.26,7.16-9.42,16-9.42s15.99,5.16,15.99,9.42-7.04,11.28-15.88,11.28-16.11-7.02-16.11-11.28Z"/>
      <text class="cls-20" transform="translate(68.72 148.5)"><tspan x="0" y="0">Extracellular</tspan><tspan x="0" y="12">Mediator</tspan></text>
      <path class="cls-23" d="M42.93,97.74c-8.83,0-16.11-7.02-16.11-11.28s7.16-9.42,16-9.42,15.99,5.16,15.99,9.42-7.04,11.28-15.88,11.28"/>
      <text class="cls-20" transform="translate(67.41 84.18)"><tspan x="0" y="0">Extracellular</tspan><tspan x="0" y="13">Mediator</tspan></text>
      <text class="cls-2" transform="translate(30.02 42.95)"><tspan x="0" y="0">Small Molecule </tspan><tspan class="cls-9" x="32.29" y="16.8">T</tspan><tspan x="40.07" y="16.8">ype</tspan></text>
    </g>
  </g>
</svg>