<?xml version="1.0" encoding="UTF-8"?>
<svg id="Layer_2" data-name="Layer 2" xmlns="http://www.w3.org/2000/svg" xmlns:xlink="http://www.w3.org/1999/xlink" viewBox="0 0 154.6 442.13">
  <defs>
    <style>
      .cls-1, .cls-2, .cls-3, .cls-4 {
        fill: none;
      }

      .cls-2 {
        stroke: #2fcc59;
      }

      .cls-2, .cls-3 {
        stroke-miterlimit: 10;
      }

      .cls-5 {
        fill: url(#linear-gradient-8);
      }

      .cls-6 {
        fill: url(#linear-gradient-7);
      }

      .cls-7 {
        fill: url(#linear-gradient-5);
      }

      .cls-8 {
        fill: url(#linear-gradient-6);
      }

      .cls-9 {
        fill: url(#linear-gradient-9);
      }

      .cls-10 {
        fill: url(#linear-gradient-4);
      }

      .cls-11 {
        fill: url(#linear-gradient-3);
      }

      .cls-12 {
        fill: url(#linear-gradient-2);
      }

      .cls-13, .cls-14, .cls-15 {
        fill: #b9c9d2;
      }

      .cls-13, .cls-14, .cls-15, .cls-16 {
        font-family: ArialMT, Arial;
      }

      .cls-13, .cls-15 {
        font-size: 9.6px;
      }

      .cls-13, .cls-17 {
        letter-spacing: -.05em;
      }

      .cls-18 {
        fill: url(#linear-gradient);
      }

      .cls-3 {
        stroke: #db0b0b;
      }

      .cls-4 {
        stroke: #6ecaea;
        stroke-miterlimit: 2;
        stroke-width: 1.2px;
      }

      .cls-19 {
        fill: #2fcc59;
      }

      .cls-20 {
        fill: #ffc721;
        font-family: Arial-BoldMT, Arial;
        font-weight: 700;
      }

      .cls-20, .cls-16 {
        font-size: 11.2px;
      }

      .cls-14 {
        font-size: 10.4px;
      }

      .cls-21 {
        fill: #6ecaea;
      }

      .cls-22 {
        letter-spacing: -.09em;
      }

      .cls-23 {
        letter-spacing: -.02em;
      }

      .cls-24 {
        letter-spacing: -.02em;
      }

      .cls-25 {
        letter-spacing: -.06em;
      }

      .cls-26 {
        letter-spacing: -.06em;
      }

      .cls-16 {
        fill: #819aa5;
      }

      .cls-27 {
        fill: #db0b0b;
      }
    </style>
    <linearGradient id="linear-gradient" x1="47.48" y1="204.11" x2="47.48" y2="191.97" gradientUnits="userSpaceOnUse">
      <stop offset=".13" stop-color="#f7941d"/>
      <stop offset=".2" stop-color="#e5891d"/>
      <stop offset=".33" stop-color="#b66d1e"/>
      <stop offset=".48" stop-color="#784820"/>
      <stop offset=".6" stop-color="#a9651e"/>
      <stop offset=".71" stop-color="#d37e1d"/>
      <stop offset=".8" stop-color="#ed8e1d"/>
      <stop offset=".85" stop-color="#f7941d"/>
    </linearGradient>
    <linearGradient id="linear-gradient-2" x1="600.04" y1="-11.73" x2="599.76" y2="1.7" gradientTransform="translate(647.37 122.86) rotate(-180)" gradientUnits="userSpaceOnUse">
      <stop offset=".11" stop-color="#ea2227"/>
      <stop offset=".11" stop-color="#e82126"/>
      <stop offset=".19" stop-color="#c31e22"/>
      <stop offset=".27" stop-color="#a61b1f"/>
      <stop offset=".35" stop-color="#91191c"/>
      <stop offset=".43" stop-color="#85181b"/>
      <stop offset=".5" stop-color="#81181b"/>
      <stop offset=".58" stop-color="#85181b"/>
      <stop offset=".67" stop-color="#91181c"/>
      <stop offset=".75" stop-color="#a6191e"/>
      <stop offset=".84" stop-color="#c31a20"/>
      <stop offset=".92" stop-color="#e81b23"/>
      <stop offset=".93" stop-color="#ed1c24"/>
      <stop offset=".94" stop-color="#d91b22"/>
    </linearGradient>
    <linearGradient id="linear-gradient-3" x1="47.48" y1="109.83" x2="47.48" y2="97.46" gradientUnits="userSpaceOnUse">
      <stop offset=".11" stop-color="#654e9f"/>
      <stop offset=".19" stop-color="#4f3c7f"/>
      <stop offset=".27" stop-color="#3b2d62"/>
      <stop offset=".36" stop-color="#2d214d"/>
      <stop offset=".44" stop-color="#241b41"/>
      <stop offset=".52" stop-color="#22193d"/>
      <stop offset=".6" stop-color="#241b41"/>
      <stop offset=".69" stop-color="#2d214d"/>
      <stop offset=".77" stop-color="#3b2d62"/>
      <stop offset=".86" stop-color="#4f3c7f"/>
      <stop offset=".93" stop-color="#654e9f"/>
    </linearGradient>
    <linearGradient id="linear-gradient-4" x1="47.48" y1="86.14" x2="47.48" y2="74.47" gradientUnits="userSpaceOnUse">
      <stop offset=".08" stop-color="#6597d1"/>
      <stop offset=".16" stop-color="#588dc6"/>
      <stop offset=".3" stop-color="#3672ab"/>
      <stop offset=".5" stop-color="#00487f"/>
      <stop offset=".5" stop-color="#00487f"/>
      <stop offset=".68" stop-color="#3470a9"/>
      <stop offset=".83" stop-color="#598cc6"/>
      <stop offset=".9" stop-color="#6797d1"/>
    </linearGradient>
    <linearGradient id="linear-gradient-5" x1="47.48" y1="156.32" x2="47.48" y2="141.72" gradientTransform="translate(0 0)" gradientUnits="userSpaceOnUse">
      <stop offset="0" stop-color="#ff0"/>
      <stop offset=".04" stop-color="#f5f503"/>
      <stop offset=".11" stop-color="#dbdb0e"/>
      <stop offset=".19" stop-color="#b1b11f"/>
      <stop offset=".29" stop-color="#777737"/>
      <stop offset=".36" stop-color="#4a4a4a"/>
      <stop offset=".39" stop-color="#65653e"/>
      <stop offset=".48" stop-color="#9b9b28"/>
      <stop offset=".55" stop-color="#c6c616"/>
      <stop offset=".62" stop-color="#e5e50a"/>
      <stop offset=".67" stop-color="#f8f802"/>
      <stop offset=".71" stop-color="#ff0"/>
    </linearGradient>
    <linearGradient id="linear-gradient-6" x1="47.48" y1="251.87" x2="47.48" y2="240.16" gradientUnits="userSpaceOnUse">
      <stop offset=".19" stop-color="#c89664"/>
      <stop offset=".26" stop-color="#a77f47"/>
      <stop offset=".37" stop-color="#7a6020"/>
      <stop offset=".45" stop-color="#5f4e08"/>
      <stop offset=".5" stop-color="#554700"/>
      <stop offset=".55" stop-color="#594a04"/>
      <stop offset=".61" stop-color="#675313"/>
      <stop offset=".68" stop-color="#7d632a"/>
      <stop offset=".75" stop-color="#9c7a4b"/>
      <stop offset=".82" stop-color="#c49674"/>
      <stop offset=".83" stop-color="#c99a7a"/>
    </linearGradient>
    <linearGradient id="linear-gradient-7" x1="-629.29" y1="554.74" x2="-629.29" y2="543.6" gradientTransform="translate(676.76 -280.41)" gradientUnits="userSpaceOnUse">
      <stop offset="0" stop-color="#fff"/>
      <stop offset=".13" stop-color="#cdcdcd"/>
      <stop offset=".29" stop-color="#969696"/>
      <stop offset=".44" stop-color="#6b6b6b"/>
      <stop offset=".57" stop-color="#4c4c4c"/>
      <stop offset=".68" stop-color="#393939"/>
      <stop offset=".76" stop-color="#333"/>
    </linearGradient>
    <linearGradient id="linear-gradient-8" x1="47.48" y1="228.34" x2="47.48" y2="213.46" gradientUnits="userSpaceOnUse">
      <stop offset="0" stop-color="#39b54a"/>
      <stop offset=".15" stop-color="#258d3e"/>
      <stop offset=".37" stop-color="#0c5a2e"/>
      <stop offset=".48" stop-color="#034629"/>
      <stop offset=".91" stop-color="#39b54a"/>
    </linearGradient>
    <linearGradient id="linear-gradient-9" x1="47.53" y1="172.71" x2="47.45" y2="183.75" gradientUnits="userSpaceOnUse">
      <stop offset="0" stop-color="#00c9ca"/>
      <stop offset=".07" stop-color="#00c1c4"/>
      <stop offset=".17" stop-color="#00acb6"/>
      <stop offset=".29" stop-color="#008aa0"/>
      <stop offset=".43" stop-color="#005c80"/>
      <stop offset=".44" stop-color="#005a7f"/>
      <stop offset="1" stop-color="#00cacc"/>
    </linearGradient>
  </defs>
  <g id="Layer_1-2" data-name="Layer 1">
    <rect class="cls-1" width="154.6" height="442.13"/>
    <text class="cls-20" transform="translate(33.92 31.94)"><tspan x="0" y="0">Figure Legend</tspan></text>
    <text class="cls-16" transform="translate(34.55 53.17)"><tspan x="0" y="0">Small Molecule</tspan></text>
    <text class="cls-16" transform="translate(57.01 65.04)"><tspan class="cls-26" x="0" y="0">T</tspan><tspan x="6.22" y="0">ype</tspan></text>
    <text class="cls-16" transform="translate(32.15 339.05)"><tspan x="0" y="0">Interaction</tspan><tspan class="cls-24" x="52.3" y="0"> </tspan><tspan class="cls-26" x="55.21" y="0">T</tspan><tspan x="61.43" y="0">ype</tspan></text>
    <text class="cls-14" transform="translate(45.57 358.59)"><tspan x="0" y="0">Inhibitory</tspan></text>
    <text class="cls-14" transform="translate(45.57 382.38)"><tspan x="0" y="0">Stimulatory</tspan></text>
    <text class="cls-14" transform="translate(44.95 407.96)"><tspan x="0" y="0">Unknown</tspan></text>
    <g>
      <line class="cls-2" x1="37.53" y1="388.68" x2="103.95" y2="388.68"/>
      <path class="cls-19" d="M106.31,387.66c-1.65-.5-2.73-.96-4.05-1.49v5.04c.47-.23,2.4-.99,4.05-1.49,1.77-.53,3.37-.9,4.41-1.03-1.04-.13-2.65-.5-4.41-1.03Z"/>
    </g>
    <g>
      <line class="cls-3" x1="38.05" y1="365.19" x2="104.47" y2="365.19"/>
      <path class="cls-27" d="M106.84,364.16c-1.65-.5-2.73-.96-4.05-1.49v5.04c.47-.23,2.4-.99,4.05-1.49,1.77-.53,3.37-.9,4.41-1.03-1.04-.13-2.65-.5-4.41-1.03Z"/>
    </g>
    <g>
      <line class="cls-4" x1="37.53" y1="414.36" x2="103.95" y2="414.36"/>
      <path class="cls-21" d="M106.78,413.13c-1.98-.6-3.27-1.15-4.87-1.79v6.05c.57-.27,2.88-1.19,4.87-1.79,2.12-.64,4.05-1.08,5.3-1.24-1.25-.16-3.17-.6-5.3-1.24Z"/>
    </g>
    <path class="cls-18" d="M40.66,204.11l-5.81-5.17c-.54-.48-.54-1.32,0-1.79l5.81-5.17h13.64l5.81,5.17c.54.48.54,1.32,0,1.79l-5.81,5.17h-13.64Z"/>
    <path class="cls-12" d="M34.68,127.31c0-3.41,5.73-6.17,12.8-6.17s12.8,2.76,12.8,6.17-5.73,6.17-12.8,6.17-12.8-2.76-12.8-6.17Z"/>
    <path class="cls-11" d="M60.68,105.7c0,2.28-1.69,4.12-3.77,4.12h-18.86c-2.08,0-3.77-1.85-3.77-4.12v-4.12c0-2.27,1.69-4.12,3.77-4.12h18.86c2.08,0,3.77,1.85,3.77,4.12v4.12Z"/>
    <path class="cls-10" d="M60.06,82.25c0,2.15-1.61,3.89-3.59,3.89h-17.97c-1.99,0-3.59-1.74-3.59-3.89v-3.89c0-2.15,1.61-3.89,3.59-3.89h17.97c1.98,0,3.59,1.74,3.59,3.89v3.89Z"/>
    <text class="cls-15" transform="translate(67.06 107.7)"><tspan class="cls-25" x="0" y="0">T</tspan><tspan x="5.33" y="0">yr Kinase</tspan></text>
    <text class="cls-15" transform="translate(67.06 79.11)"><tspan x="0" y="0">Ser/Thr </tspan><tspan x="0" y="10">Kinase</tspan></text>
    <text class="cls-13" transform="translate(67.06 131.05)"><tspan x="0" y="0">Phosphatase</tspan></text>
    <text class="cls-15" transform="translate(67.06 180.36)"><tspan x="0" y="0">Regulatory</tspan></text>
    <text class="cls-15" transform="translate(67.06 226.07)"><tspan x="0" y="0">Metabolic</tspan></text>
    <text class="cls-15" transform="translate(67.06 247.42)"><tspan x="0" y="0">Structural</tspan></text>
    <text class="cls-15" transform="translate(67.06 270.78)"><tspan x="0" y="0">Unclassified</tspan></text>
    <path class="cls-7" d="M39.57,156.96l-4.09-3.15c2.1-1.61,2.1-4.25,0-5.86l4.09-3.15h15.81s4.09,3.15,4.09,3.15c-2.1,1.61-2.1,4.25,0,5.86l-4.09,3.15h-15.81Z"/>
    <text class="cls-15" transform="translate(67.08 150.41)"><tspan x="0" y="0">Adapter/</tspan><tspan x="0" y="10">Sca</tspan><tspan class="cls-23" x="16.54" y="10">f</tspan><tspan x="19.04" y="10">fold</tspan></text>
    <text class="cls-15" transform="translate(67.06 202.71)"><tspan class="cls-22" x="0" y="0">T</tspan><tspan class="cls-17" x="5.03" y="0">ranscription</tspan></text>
    <rect class="cls-8" x="35.25" y="240.16" width="24.46" height="11.71"/>
    <path class="cls-6" d="M35.16,263.19h24.64c0,6.15-4.99,11.14-11.14,11.14h-2.35c-6.15,0-11.14-4.99-11.14-11.14h0Z" transform="translate(94.96 537.52) rotate(180)"/>
    <polygon class="cls-5" points="47.48 215.43 33.44 220.55 38.8 228.84 56.16 228.84 61.52 220.55 47.48 215.43"/>
    <polygon class="cls-9" points="34.9 174.64 39.53 170.64 55.39 170.67 60.1 174.44 60.1 180.02 55.26 183.38 39.57 183.35 34.86 180.17 34.9 174.64"/>
  </g>
</svg>